<?xml version="1.0" encoding="UTF-8"?>
<svg id="uuid-9fae3e7d-9ce9-4b08-a636-153961b7a93b" xmlns="http://www.w3.org/2000/svg" version="1.1" viewBox="0 0 1200 336">
  <path fill="currenColor" d="M249.3,252.5c.6-.4,1.5-1.1,2.7-2.1s2.6-2.9,4.3-5.6c1.6-2.7,3.5-6.7,5.5-11.8s4.1-12.2,6.2-21.1c1.1-4.7,2.6-10.7,4.5-18.1,1.9-7.3,3.9-15.1,6.1-23.4,2.2-8.3,4.5-16.9,6.8-25.7s4.5-17.2,6.7-25.1,4.1-15.2,5.8-21.6,3.1-11.5,4.1-15c-2.7,1.7-5.4,3.7-8,5.8-2.3,1.9-4.7,4-7.3,6.3s-5.1,4.8-7.5,7.4c-1.9-1.6-3.3-3.3-4.3-5.2-.6-.9-1.1-1.8-1.5-2.8-.9-2.2-1.3-4.4-1.3-6.7s1.8-4.7,5.4-7.1c1.9-1.3,4.7-3.2,8.5-5.6s8.5-4.8,14.1-7.2,12.1-4.4,19.5-6.1c7.5-1.7,15.7-2.6,24.7-2.6s16.3,1.8,21.8,5.4c5.5,3.6,9.7,7.9,12.7,13.1,2.9,5.2,4.8,10.6,5.7,16.3.9,5.7,1.1,10.7.6,15-.9,8-3.4,16.4-7.7,25.1-4.3,8.7-10.2,16.8-17.8,24.2s-16.8,13.6-27.7,18.8c-10.9,5.2-23.4,8.1-37.4,8.8-1.1,5.4-2.3,11-3.4,16.8s-2.4,11.4-3.6,16.9-2.6,10.7-4,15.5-2.8,8.9-4.2,12.4c-1.4,3.7-3.3,6.7-5.6,8.9-2.3,2.2-6,3.3-11,3.3s-5-.6-7.2-1.9-4.3-3.1-6.1-5.4h-.1ZM300.2,154.5c-.4,2.3-1,5.3-1.6,8.9s-1.4,7.8-2.3,12.4c3.9-.6,8.2-1.6,12.9-3.1s9.5-3.5,14.2-6.1,9.4-5.7,13.9-9.4,8.6-7.9,12.4-12.7c3.7-4.8,6.8-10.2,9.4-16.3,2.5-6.1,4.1-12.8,4.8-20.3.7-7.2.3-13.1-1.2-17.9s-3.7-8.7-6.5-11.6c-2.9-2.9-6.2-5-9.9-6.2-3.7-1.2-7.5-1.8-11.2-1.8s-7.1.5-10.5,1.5-6.9,2.3-10.3,3.9c.4,0,.9.5,1.5,1.1.9.9,1.5,2.1,1.9,3.7-3.4,13.9-6.3,25.5-8.5,34.8s-4,16.9-5.3,22.8c-1.6,6.9-2.8,12.4-3.6,16.5h0v-.2Z"/>
  <path fill="currenColor" d="M373.7,220.7c-1,1.6-2.1,2.6-3.3,3.1-1.2.5-2.3.6-3.2.2s-1.5-1.1-1.8-2.3c-.3-1.1,0-2.6.9-4.3l2.9-5.8c1.5-3,3.3-6.6,5.4-10.9,2.1-4.2,4.3-8.8,6.8-13.8s4.8-9.6,7-14.1,4.3-8.4,6.1-11.9,3.2-6.1,4.1-7.6c-1.6-1.4-2.6-2.5-3.2-3.1s-1-2-1.3-4.2c-.3-1.9.1-4.3,1.3-7.3,1.1-3,2.6-5.9,4.5-8.7s3.9-5.2,6.2-7.2c2.3-2,4.5-3,6.7-3,4,0,6.8,1.3,8.5,3.9,1.6,2.6,2.6,5.2,2.9,7.9.3,1.9.1,4.2-.4,7.1-.6,2.9-1.6,5.4-3.2,7.7.4.3,1,.6,1.7,1s1.9.5,3.4.5c2.3,0,3.9-.1,4.8-.4s2.4-.4,4.4-.4,4.4.6,6,1.8,2.9,2.7,3.9,4.5,1.8,3.7,2.3,5.8.8,4,1,5.7c.4,3.6-.5,7.3-2.8,11.2s-5.1,8.1-8.4,12.7c-2,2.9-4,6.1-6,9.7-2,3.6-2.9,6.8-2.6,9.7.3,1.9.8,3.4,1.5,4.5s2.7,1.7,6,1.7,5.1-.9,8.1-2.7c2.9-1.8,5.9-4.1,9-6.9,3.1-2.8,6.1-5.9,9.1-9.2,3-3.4,5.8-6.7,8.4-9.9s4.8-6.1,6.5-8.7c1.8-2.6,3.1-4.4,4-5.6.7-1.1,1.6-1.9,2.8-2.4,1.1-.4,2.1-.4,3,0s1.4,1.3,1.6,2.6-.3,3-1.6,5.2c-.9,1.4-2.3,3.7-4.4,6.9-2.1,3.1-4.6,6.7-7.5,10.5-2.9,3.9-6.2,7.8-9.8,11.9s-7.3,7.8-11.3,11.2c-3.9,3.4-7.9,6.1-11.8,8.3-3.9,2.1-7.7,3.2-11.3,3.2s-6.8-.7-9.2-2.1-4.4-3.2-5.9-5.3-2.6-4.4-3.2-6.9-.9-4.8-.8-7c.1-1.7.6-3.5,1.4-5.5.8-1.9,1.7-3.9,2.8-6,1.1-2.1,2.2-4.1,3.4-6.2,1.2-2.1,2.3-4.1,3.3-6.1,2.4-4.1,4.4-7.7,5.9-10.6,1.5-2.9,2.3-5.4,2.3-7.4s-.3-2.4-.9-3.4-1.5-1.5-2.8-1.5-1.5,0-1.8.1-.7.1-1.1.1-.9,0-1.5.1-1.6.1-2.9.1c-1.9,0-3.4-.3-4.7-.9s-2.5-1-3.6-1.3c-.6,1-1.9,3.1-3.9,6.4s-4.3,7.2-7,11.6c-2.6,4.4-5.5,9.1-8.4,14s-5.7,9.4-8.3,13.6c-2.6,4.2-4.8,7.8-6.5,10.7-1.8,2.9-2.9,4.7-3.3,5.3h-.2Z"/>
  <path fill="currenColor" d="M534.9,187.6c-1.4,5.4-3.4,10.5-5.8,15.2-2.4,4.7-5.3,8.8-8.7,12.2s-7.2,6.1-11.4,8.1c-4.2,1.9-8.9,2.9-13.9,2.9s-10.5-1.3-13.9-3.8-5.9-5.6-7.5-9.4c-1.6-3.7-2.6-7.8-3-12.2s-.5-8.6-.5-12.5.3-5.7,1-9c.6-3.3,1.5-6.7,2.7-10.1,1.1-3.4,2.6-6.9,4.4-10.3,1.8-3.4,3.9-6.6,6.3-9.4.9-2.4,2.2-4.6,4-6.4,1.8-1.9,3.9-3.4,6.2-4.6,2.4-1.2,4.9-2.1,7.6-2.8,2.7-.6,5.4-1,8-1s.8,0,1.2.2c.4.2.8.3,1.2.4,1.9.1,4.2.9,7,2.1s5.5,3.2,8.2,5.8,4.9,5.8,6.8,9.8c1.9,3.9,2.8,8.7,2.8,14.3s0,2.5-.2,4.2c0,1.6-.3,3-.4,4.2,3.3-1.3,6.7-2.9,10.3-4.7,3.6-1.9,7-3.8,10.4-5.9,3.4-2.1,6.5-4.2,9.3-6.3,2.9-2.1,5.2-4.1,6.9-5.8,1.4-1.3,2.7-2,3.7-2.1s1.7.1,2.2.9c.4.7.5,1.7.2,3s-1.1,2.7-2.4,4.3c-.7.9-2.5,2.6-5.5,5.2s-6.4,5.4-10.4,8.4-8.4,5.9-13.1,8.8c-4.7,2.9-9.2,5-13.5,6.4h-.2ZM484.8,192.7c0,2.6.1,5.1.4,7.6s.9,4.7,1.7,6.7,2,3.5,3.4,4.7,3.3,1.8,5.6,1.8,4.9-.6,7.1-1.8c2.1-1.2,4.1-2.8,5.8-4.7s3.3-4.1,4.6-6.7c1.4-2.5,2.5-5.1,3.5-7.8-1,.1-2,.2-2.9.3-.9,0-2,.1-3.1.1-5.5,0-10.1-1.6-14.1-4.8s-7-7.3-9.1-12.4c-.9,3-1.6,5.9-2.1,8.8-.6,2.9-.9,5.6-.9,8.2h.1ZM498.5,154.9c-.4,1.3-.6,2.6-.6,4.1,0,2.3.1,4.7.4,7.2s1,4.8,2.1,6.8,3,3.7,5.5,5.1c2.5,1.4,6,2,10.4,2s1.4,0,2.2-.1c.7,0,1.4-.2,2.2-.3.4-1.9.8-3.5,1.2-5.1.4-1.5.5-2.8.5-4,.3-2.7.3-5.5,0-8.4s-.8-5.5-1.6-7.8c-.8-2.4-1.8-4.3-3-5.8s-2.7-2.3-4.4-2.3c-2.7,0-5.3.8-7.8,2.3s-4.8,3.6-7,6.3h-.1Z"/>
  <path fill="currenColor" d="M562.2,199.4c-1.6-1.6-2.7-3.1-3.3-4.6s-1.1-3-1.4-4.4c-.3-1.6-.3-3.1,0-4.7.6-2,1.4-3.9,2.6-5.6,1-1.6,2.4-3.2,4.1-4.8,1.7-1.6,4-3.2,6.9-4.6,1.9-4.6,3.5-9.4,5-14.5s2.8-9.7,4-13.9c1.3-4.9,2.4-9.7,3.4-14.6,3.6-12.2,5.4-22.1,5.6-29.8,0-7.7,0-12.7-.4-15.2,0-1-.3-2-.4-3-.3-.9-.5-1.8-.8-2.9s-.5-2.1-.8-3.1c1.6-.9,3-1.6,4.2-2.2s2.3-1,3.1-1.3c1-.4,1.9-.7,2.8-.9,3.3-.7,6.4-1.1,9.3-1.2,2.9,0,4.5.5,4.8,1.6,0,.7.3,2,.5,3.9s.3,4.2.3,6.9-.2,5.8-.6,9.1c-.4,3.4-1.2,6.9-2.4,10.6-1,3.3-2.4,7.9-4.1,13.8-1.6,5-3.7,11.7-6.2,20.1-2.6,8.4-6,19.1-10.1,32.1,4.3-1.4,9-2.8,14.2-4.1s10.4-2.4,15.8-3.2,10.7-1.5,16.1-1.9,10.3-.5,14.9-.2c.9,0,1.5.4,1.8,1.2.4.8.4,1.6,0,2.5s-1.2,1.7-2.4,2.5-3,1.3-5.3,1.4c-2.9.3-6,.6-9.5,1-3.4.4-7,.9-10.6,1.5s-7.3,1.4-10.8,2.4c-3.6.9-7,2-10.1,3.3-2.4.9-4.9,1.7-7.3,2.6-2,.7-4.1,1.5-6.3,2.5-2.2.9-4,1.8-5.5,2.5l-4.9,15.7c8.3,5.9,14.7,11.9,19.2,18.1s7.8,11.8,9.8,17c2.4,6,3.8,11.9,4.1,17.6,0,6.3-.9,12.6-2.8,19s-4.3,12.5-7.4,18.3c-3.1,5.8-6.7,11.2-10.7,16.2s-8.4,9.3-12.9,12.9-9.1,6.3-13.8,8.2c-4.7,1.9-9.1,2.6-13.2,2.1-3-.3-5.5-1.3-7.5-2.9s-3.5-3.7-4.5-6.2-1.6-5.3-1.7-8.4c0-3.1,0-6.1.9-9.1.6-3,1.8-8.6,3.7-16.8,1.6-6.9,4-16.9,7.3-30s7.7-30.5,13.3-52.3h0v-.2ZM574.8,209.5c-2,7.2-3.8,13.8-5.3,19.8s-2.8,11.3-3.8,15.9c-1.3,5.3-2.3,10.1-3,14.4-1.3,5.4-2.6,10.8-4,16.1-1.4,5.3-2.4,10.1-3.2,14.3-.8,4.2-1.1,7.6-1,10.2s1.1,3.9,2.8,3.9c4.2.3,8.5-1.3,13-4.8s8.6-8,12.3-13.3,6.8-11.2,9.2-17.4c2.4-6.2,3.7-12,3.7-17.3s-.9-11.7-2.8-17.4c-1.3-3-2.8-5.9-4.5-8.8-1.6-2.4-3.5-5.1-5.7-7.8-2.2-2.8-4.8-5.3-7.8-7.6h0v-.2Z"/>
  <path fill="currenColor" d="M726.7,177.1c-4.3,6.3-9.2,12.4-14.6,18.4-5.5,5.9-11.2,11.2-17.3,15.9s-12.3,8.4-18.7,11.3c-6.4,2.9-12.6,4.3-18.6,4.3s-6.5-.8-10.2-2.3-7-3.8-10-7-5.4-7.2-7.2-12.2-2.3-11.1-1.6-18.3c.6-5.9,2.4-12.1,5.5-18.6s6.9-12.5,11.4-17.9,9.6-9.9,15.2-13.5c5.7-3.6,11.3-5.4,17.1-5.4s9.4,1.4,11.8,4.1c2.4,2.7,3.5,6.1,3.2,10.1-.4,4.4-1.7,8.5-3.8,12.2s-4.5,7.1-7.4,10.1-5.9,5.7-9.1,8.2c-3.2,2.4-6.3,4.7-9.1,6.7-3.2,2.1-6.2,4.2-9,6.1-2.9,1.9-5.4,3.7-7.5,5.3,0,3.6.8,6.6,1.9,9,1.1,2.4,2.6,4.4,4.3,5.9s3.7,2.6,5.9,3.2,4.5,1,6.8,1c4.9,0,10-1.5,15.2-4.6s10.5-6.8,15.6-11.2,9.8-8.9,14.2-13.6c4.4-4.7,8-8.8,10.8-12.2,1-1.1,2-1.8,3.1-2s1.9,0,2.6.4c.6.5,1,1.4,1,2.6s-.5,2.6-1.5,4.2h0v-.2ZM671.7,144c-1.7,0-3.8.9-6.1,2.6s-4.7,4.2-7,7.4-4.4,7.2-6.5,11.8-3.5,10-4.5,16c1.7-1.3,3.6-2.6,5.6-4s4-2.8,6-4.4c6.2-4.7,10.5-8.9,12.9-12.5s3.8-6.7,4.1-9.2c.3-2.7,0-4.7-.9-5.9s-2.1-1.8-3.7-1.8h.1Z"/>
  <path fill="currenColor" d="M899.5,108.9c-.6,6.2-2.2,12.6-4.8,19.3-2.7,6.7-6.3,13.2-11.1,19.6-4.7,6.3-10.5,12.2-17.2,17.6-6.7,5.4-14.4,9.9-23,13.3,1.3,2.4,2.5,5,3.7,7.7,1.1,2.7,2.2,5.8,3,9.2,1.3,4.6,2.4,9.3,3.3,14.2s1.7,9.6,2.4,14.2,1.2,8.8,1.7,12.8c.5,3.9.9,7.2,1.2,9.8.6,4.3,2,7.3,4.2,9.1,2.2,1.8,4.7,2.8,7.5,3s5.6-.1,8.4-1,5-1.8,6.5-2.8c0,.1-.9,1.4-2.4,3.8s-3.4,4.9-5.8,7.5c-2.4,2.6-5.3,4.9-8.7,6.9-3.4,1.9-7.1,2.5-11.3,1.8-2.9-.4-5.4-1.4-7.6-2.9-2.2-1.5-4.2-3.7-5.8-6.7-1.7-2.9-3-6.7-4-11.3-1-4.6-1.7-10.2-1.9-16.8-.3-8.9-.6-17.4-1-25.5s-1.9-15.6-4.6-22.4c-.4-1.1-.9-2.3-1.3-3.3s-.9-2-1.5-2.9c-5.9,1.4-12.5,2.4-19.8,2.8-1,5.4-2.1,11-3.2,16.8-1.2,5.7-2.3,11.3-3.5,16.8-1.2,5.4-2.5,10.6-3.9,15.4s-2.7,8.9-4,12.4c-1.4,3.6-3.3,6.5-5.5,8.7s-5.8,3.3-10.6,3.3-5.4-.6-7.5-1.9-4.2-3.1-6.2-5.4c.6-.4,1.5-1.1,2.7-2s2.7-2.8,4.3-5.6,3.4-6.8,5.4-11.9,3.9-12.1,5.9-20.8c.7-3.6,1.7-7.8,2.9-12.6s2.5-10.1,4-15.8c-5.7-3.1-8.4-7.4-8-12.7.3-3.3,1.8-6.1,4.5-8.4,2.7-2.3,6-3.9,9.9-4.7,1.9-7.4,3.8-15,5.7-22.6,1.9-7.6,3.8-14.7,5.5-21.4s3.3-12.7,4.7-18c1.4-5.4,2.6-9.6,3.4-12.8-2.6,1.7-5.2,3.7-7.7,5.8-2.3,1.9-4.8,4-7.4,6.3-2.7,2.4-5.1,4.8-7.4,7.4-1.2-.9-2.1-1.8-2.8-2.8s-1.3-1.9-1.7-2.6c-.6-.9-1-1.8-1.3-2.8-1-2-1.5-4.2-1.5-6.6s1.7-4.8,5.2-7.2c1.9-1.3,4.7-3.2,8.5-5.6s8.5-4.8,14.1-7.1c5.6-2.3,12.1-4.3,19.4-6s15.6-2.6,24.6-2.6,16.3,1.8,21.9,5.4c5.6,3.6,9.9,7.9,12.9,13.1s5,10.6,5.9,16.3,1.2,10.7.8,15h0v.2ZM811.6,175.3c1.7-.3,3.4-.6,5.2-1s3.6-.8,5.6-1.4c-2.4-2.3-5.7-3.7-9.7-4.3-.4,2.3-.8,4.5-1.1,6.7h0ZM834.6,168c5-2.4,10-5.4,14.9-9s9.4-7.9,13.4-12.9,7.4-10.7,10.1-17.1c2.7-6.4,4.4-13.6,5.2-21.6.6-7.2,0-13.1-1.4-17.9s-3.7-8.6-6.7-11.5c-2.9-2.9-6.3-4.9-10-6.1s-7.5-1.8-11.2-1.8-6.9.5-10.4,1.5-6.9,2.3-10.2,3.9c.4,0,.9.5,1.5,1.1.3.4.6,1,1,1.6s.6,1.3.8,2c-3.3,13.9-6,25.5-8,34.8s-3.7,16.9-4.9,22.8c-1.6,6.9-2.7,12.4-3.4,16.5,0,.6-.2,1.1-.3,1.7s-.2,1.2-.3,1.9c3.2.7,6.5,1.8,9.9,3.3s6.8,3.8,10.1,6.8h0Z"/>
  <path fill="currenColor" d="M913.8,141c.7-.9,2.1-1.6,4.1-2.1,2-.6,4.1-1,6.2-1.4,2.2-.4,4.1-.6,5.9-.6s2.8,0,3.1.1c0,.1-.2,1.6-1.1,4.5-.9,2.9-1.9,6.2-3.2,10.1s-2.7,7.8-4.1,11.9-2.5,7.4-3.2,10-1.6,5.5-2.6,8.7-1.9,6.4-2.7,9.4c-.8,3.1-1.3,6-1.6,8.7s0,4.8.6,6.2c.7,1.7,1.5,2.9,2.4,3.5s1.8,1,2.8,1c2.9,0,6.5-1.6,10.8-4.7,4.4-3.1,8.8-6.9,13.3-11.3s8.7-8.8,12.6-13.3,6.7-8.1,8.6-10.9c1.1-1.4,2.3-2.4,3.5-2.8,1.2-.4,2.2-.4,3,.2.8.6,1.2,1.5,1.3,2.8,0,1.3-.4,2.8-1.4,4.5-2.3,4-5.7,8.8-10.1,14.3-4.4,5.5-9.2,10.8-14.2,15.9-5,5.1-9.9,9.4-14.7,13s-8.7,5.4-11.7,5.6c-2.4.1-4.8-.2-7.2-1.2-2.4-.9-4.5-2.2-6.5-3.9-1.9-1.6-3.5-3.6-4.8-5.8s-2-4.5-2.2-7c-.4-3.6-.4-8.5,0-14.7s1.2-12.6,2.4-19.1c1.1-6.5,2.6-12.7,4.4-18.6,1.8-5.9,3.8-10.2,6.1-13.1h.2ZM943.5,95.2c-.4,1.6-1.3,3.1-2.5,4.6s-2.6,2.7-4.1,3.7-3,1.5-4.6,1.8-2.9,0-3.9-.9c-3-2.3-4.6-4.8-4.7-7.4,0-2.7.5-5.2,1.9-7.5,1.4-2.4,3.2-4.4,5.4-6,2.2-1.7,4-2.6,5.6-2.9s2.9,0,4,1c1.1.9,1.9,2.2,2.5,3.7s.9,3.2,1,5.1c0,1.9,0,3.5-.5,4.9h-.1Z"/>
  <path fill="currenColor" d="M993.1,214.4c4.4,0,9.3-1.8,14.7-5.3s10.6-7.6,15.7-12.4c5.1-4.7,9.7-9.6,14-14.5s7.4-8.9,9.6-11.9c1.3-1.9,2.5-3,3.7-3.3,1.1-.4,2-.2,2.6.5s.8,1.8.6,3.3c0,1.5-.8,3.2-1.9,5.1-1,1.7-2.7,4.2-5.1,7.4s-5.2,6.7-8.4,10.5-6.9,7.7-11,11.6c-4.1,3.9-8.3,7.5-12.8,10.7-4.4,3.2-9,5.9-13.8,7.9-4.7,2.1-9.4,3.1-14,3.1s-11.6-1.2-15.8-3.5c-4.2-2.4-7.6-5.4-10.1-9.1-2.5-3.7-4.3-7.8-5.3-12.4s-1.5-9-1.5-13.4,1-9.9,3-16.5,5-12.9,8.9-19,8.9-11.3,14.9-15.7,13.1-6.6,21.3-6.6,8.5,1.6,11.7,4.7c3.2,3.1,4.8,7.4,4.6,12.9,0,2.6-.4,5.1-1.3,7.6-.9,2.5-2,4.7-3.4,6.7-1.4,1.9-3.1,3.5-5,4.6s-4,1.7-6.3,1.7-3.3-.7-4.2-2-1.5-2.9-1.7-4.7-.2-3.5,0-5.3.5-2.9.8-3.4c.7-1,1.5-1.7,2.4-2.1l3-1.5c.9-.4,1.5-1.1,2-1.9.5-.9.8-1.8.8-2.8s-.3-1.9-.9-2.6c-.6-.7-1.5-1.1-2.8-1.1s-3.6,1-7,3.1-6.8,5.2-10.3,9.2-6.6,9.2-9.3,15.4-4.2,13.3-4.3,21.5c0,4.7.5,8.6,1.9,11.6s3.2,5.4,5.4,7.1,4.5,2.9,7.1,3.6c2.6.7,5.1,1.1,7.5,1.1h0Z"/>
  <path fill="currenColor" d="M1146.7,179c-3.3,5.4-7.1,11.1-11.3,16.9-4.2,5.8-8.7,11.1-13.4,15.9-4.7,4.8-9.6,8.8-14.6,11.9-5,3.1-10,4.7-15,4.7s-8.6-1.7-10.8-5.1-3.3-7.1-3.1-11.3c0-1.9.2-3.5.5-4.9.4-1.4.8-2.7,1.2-3.9.4-1.1.9-2.3,1.4-3.5s1-2.6,1.4-4.2c.6-1.9.6-3.5,0-5.1-.5-1.5-1.1-2.8-1.8-4-1.3,1.4-2.8,2.7-4.4,3.8-1.7,1.1-3.7,1.6-6.1,1.6s-3.3-.8-4.7-2.5c-1.4-1.6-2.2-3.7-2.2-6.1s.5-3.6,1.4-4.9c.9-1.3,2-2.3,3.2-3s2.5-1.2,3.8-1.5,2.4-.4,3.2-.4,1.3,0,2.7.2c1.4.1,2.8.4,4.4.6,5.2-4.1,8.8-7.9,11.1-11.3,2.2-3.4,2.4-6.4.5-9.1-1.2-1.9-2.6-2.8-4.3-2.9-1.7,0-3.5.4-5.4,1.3s-3.7,2.1-5.5,3.5-3.4,2.8-4.8,4.1c-2.9,2.9-6.1,6.3-9.6,10.2s-6.4,7.2-8.7,9.8c-1,4.3-2,8.8-3,13.5-.9,4.2-1.8,8.9-2.9,14.1-1.1,5.2-2.2,10.6-3.3,16.2-.9.4-1.8.8-2.7,1-.9.2-1.8.4-2.5.5-.9.1-1.7.2-2.6.2s-2.2,0-3.2-.1-1.8-.4-2.5-1.1-1-1.7-1.1-3.1.3-3.4,1.2-6c1.2-3.7,2.6-8.7,4.3-14.9s3.5-13.1,5.4-20.5,3.8-15.2,5.7-23.3c1.9-8.1,3.8-15.8,5.5-23.2,1.7-7.4,3.2-14,4.4-20,1.2-5.9,2.1-10.6,2.7-14.1.4-3.7.9-7.3,1.3-10.7.3-2.9.5-5.7.5-8.5s0-4.9-.5-6.3c.7-.7,1.7-1.4,3-1.9s2.7-1,4.3-1.3c1.6-.4,3.4-.8,5.6-1.1,2.4-.3,4.5-.4,6.1-.2,1.6,0,2.8.9,3.5,2.2.9,1.4,1,3.8.5,7.2-.5,3.4-1.5,8.1-3.1,14.1-2,7.7-4.1,14.8-6.1,21.2-2.1,6.4-4.1,12.3-6,17.9-1.9,5.6-3.8,11-5.6,16.2-1.8,5.2-3.4,10.6-4.8,16,2.9-4.1,6.4-8.6,10.7-13.2,4.3-4.6,9.2-8.5,14.6-11.5,5.7-3,10.4-4.5,14.2-4.5s7.9,1.5,9.9,4.6,2.9,6.7,2.8,10.9c0,3.3-1,6.3-2.5,9.1s-3.3,5.4-5.5,7.7-4.4,4.4-6.9,6.1c-2.4,1.7-4.5,3.1-6.2,4.3,2,1.1,3.8,2.7,5.3,4.6s2.2,4.3,2,7.2c0,3.9-.9,7.3-2.3,10.2s-2,5.6-2,8.1c0,1.9.5,3.2,1.2,4.1s2,1.3,4.2,1.3c3.9,0,7.9-1.6,12.1-4.9,4.2-3.3,8.2-7.1,11.9-11.4,3.7-4.3,7.2-8.6,10.3-12.8s5.6-7.3,7.3-9.4c2.4-2.6,4.5-3.3,6.1-2,1.6,1.2,1.5,3.5-.5,6.8h0Z"/>
  <g>
    <path class="logo" d="M217.6,173.4h0c-4.7-21-17.3-34.2-23.1-39.7,2-2.6,9.5-12.7,8.8-27.6-.6-14.6-8.8-24-11-26.4,3.1-1.8,7.4-4.9,11-9.9,1.5-2.1,4.5-6.8,5.5-13.2,0-.4,1.2-7.9-1.1-8.8-.8-.3-2.1,0-2.2,0-1.1.2-1.9.8-2.2,1.1-5,2.3-10.9,4.6-17.6,6.6-5.1,1.5-10,2.6-14.3,3.3-5.8-2.4-15.8-5.6-28.6-5.5-12.2,0-21.8,3.2-27.6,5.5-5-1-10.6-2.5-16.5-4.4-5.3-1.7-10-3.6-14.3-5.5-.2-.2-1.5-1.3-3.3-1.1-1,0-1.8.7-2.2,1.1-1.5,1.6-.8,4.7,0,7.7,1.8,7,2.7,10.6,5.5,14.3,3.8,5.1,8.5,7.7,11,8.8-1.9,1.8-11.9,11.6-12.1,27.5-.2,14.6,8,24.3,9.9,26.5-18.2,15.9-23.5,31.6-25.3,39.7-9,39.4,20.2,87.7,74.9,115,9.5-5.1,22.6-13.1,36.4-25.2,12.7-11.1,22.9-20.1,30.6-35.6,3.9-7.9,13.8-28.5,8-54.2h-.2ZM143.7,64.3c3.9,0,7.3.5,9.9,1.1-1.3.5-2.8,1.2-4.4,2.2-2.4,1.5-4.2,3.1-5.5,4.4-1.3-1.3-3.1-3-5.5-4.4-1.6-1-3.1-1.7-4.4-2.2,3.9-.9,7.2-1.1,9.9-1.1ZM91.9,63.2h0c2.6,1.1,6.8,2.8,12.1,4.4,6,1.8,7.9,1.9,16.5,4.4,9,2.6,12.1,3.9,13.2,4.4,4.3,1.9,7.7,4,9.9,5.5,1.2-.8,3.1-2,5.5-3.3,4.3-2.3,8.3-3.7,18.7-6.6,8.2-2.3,8.1-2.1,12.1-3.3,6.7-2,12-4.1,15.4-5.5-1.6,1.5-3.8,3.5-6.6,5.5-1.5,1-5.7,4-12.1,6.6-5.5,2.3-5.7,1.5-9.9,3.3-2.7,1.1-8.1,3.8-13.2,8.8-5.6,5.5-8.5,11.5-9.9,15.4-2.6-7.3-6.4-11.8-8.8-14.3-5-5.1-10.7-7.7-15.4-9.9-2.7-1.3-8-3.5-13.2-5.5-3.2-1.2-5.8-2.2-8.8-4.4-2.6-1.9-4.4-4-5.5-5.5h0ZM94.2,102.8h0c1.8-10,8.8-15.9,11-17.6,6.4,1.4,11.2,3.7,14.3,5.5,3.5,2,6.8,3.9,9.9,7.7,3.2,3.9,4.5,7.8,5.5,11,1.6,4.8,1.8,8.3,2.2,11,.7,5,2.3,12.2,6.6,20.9,4.4-8.9,6-16,6.6-20.9.2-2,.6-5.9,2.2-11,1-3.4,2-6.6,4.4-9.9,2.6-3.7,5.6-5.6,8.8-7.7s8.4-4.9,15.4-6.6c2,1.4,10,7.1,12.1,17.6,1.9,9.6-1.6,21.1-9.9,26.5-4.8,3-9.8,3.3-11,3.3-6,.2-10.4-2.2-12.1-3.3-.6,0-3.3,0-5.5,2.2s-2.1,3.7-2.2,4.4c1.6,1.4,3.8,3,6.6,4.4,4.3,2.2,8.3,3,11,3.3-4.9,3.5-11.5,9.2-17.6,17.6-5,7-8.1,13.6-9.9,18.7-1.4-5.1-4.2-12.9-9.9-20.9-5.4-7.5-11.2-12.5-15.4-15.4,2.6-.5,6.1-1.4,9.9-3.3,2.8-1.4,5-3,6.6-4.4-.4-2.4-1.7-3.9-2.2-4.4-1.7-1.7-3.8-2.1-4.4-2.2-1.7,1.1-6.1,3.5-12.1,3.3-1.3,0-6.3-.3-11-3.3-8.5-5.5-11.6-17.1-9.9-26.5h0ZM207.7,198.7h0c-.9,5.5-4.1,22.3-16.5,37.5-3.5,4.2-7.8,8.3-16.6,16.4-6.2,5.8-11.6,10.3-15.3,13.4,3.8-10,8-17.3,11.1-22,6-9.1,9-10.7,15.3-20.9,3.1-4.9,7-11.3,10-19.8,2.2-6.2,4.9-16.4,4.4-29.8-3.7,1.8-7.4,3.7-11,5.5-.3,6.4-1.6,17-6.6,27.5-3.8,8.1-8.8,14.3-8.8,14.3-1.9,2.4-2.9,3.3-5.5,6.6-3.8,4.8-6.3,8.8-7.7,11-7,11.1-11,20.9-13.2,26.5-2,4.9-3.4,9.1-4.4,12.1-.9-3.2-2.3-7.8-4.4-13.2-3.7-9.4-7.6-15.9-13.2-25.3-4.9-8.3-7.5-11.6-8.8-13.2-2.3-2.8-3.2-3.7-5.5-6.6-4.1-5.3-6.7-10.1-7.7-12.1-5.2-10.4-5.6-22.3-5.5-27.5-3.7-1.8-7.3-3.7-11-5.5-.5,6.4-.4,16.3,3.3,27.5,2.2,6.6,4.8,11.4,7.7,16.5,6.2,11,10.2,14.8,16.5,24.2,3.7,5.5,8.5,13.6,13.2,24.2-14.7-9.1-24.2-19.4-29.8-26.4-7.7-9.7-17.5-22.1-19.8-40.8-1.9-15.3,2.3-27,3.3-29.8,4.7-12.6,12.4-20.5,16.5-24.2,6.6,3.3,18.6,10.5,28.7,24.2,8.5,11.7,7.8,18.6,13.2,28.6.5.9,1.8,3.2,3.6,3.3,1.9,0,3.4-2.3,4.1-3.3,3.8-6.1.8-12,14.3-29.8,9.8-12.8,21.1-19.8,27.5-23.1,4.3,3.5,13.3,11.8,17.6,25.3,3.8,11.6,2.3,21.4,1.1,28.7h-.1Z"/>
    <path class="logo" d="M117.3,204.2h0c-3.9-3.1-9.2-5.4-9.9-4.4-.4.5.5,1.7,5.5,7.7,7.9,9.5,9.3,10.9,11,14.3,2.7,5.4,2.8,8.9,3.3,8.8.8-.1,1.7-10-3.3-18.7-1-1.8-3.1-4.9-6.6-7.7h0Z"/>
    <path class="logo" d="M168.8,204.2h0c-3.5,2.8-5.6,5.9-6.6,7.7-5,8.8-4.2,18.6-3.3,18.7.5,0,.6-3.5,3.3-8.8,1.7-3.4,3.1-4.8,11-14.3,5-6,5.9-7.2,5.5-7.7-.7-1-6,1.3-9.9,4.4h0Z"/>
    <circle class="logo" cx="116.3" cy="109.2" r="9.9"/>
    <circle class="logo" cx="170.4" cy="109.2" r="9.9"/>
  </g>
</svg>